<?xml version="1.0" encoding="UTF-8" standalone="no"?>
<svg
   xmlns:dc="http://purl.org/dc/elements/1.1/"
   xmlns:cc="http://creativecommons.org/ns#"
   xmlns:rdf="http://www.w3.org/1999/02/22-rdf-syntax-ns#"
   xmlns:svg="http://www.w3.org/2000/svg"
   xmlns="http://www.w3.org/2000/svg"
   id="svg2"
   xml:space="preserve"
   height="256"
   width="256"
   version="1.1"><metadata
     id="metadata22"><rdf:RDF><cc:Work
         rdf:about=""><dc:format>image/svg+xml</dc:format><dc:type
           rdf:resource="http://purl.org/dc/dcmitype/StillImage" /><dc:title></dc:title></cc:Work></rdf:RDF></metadata><defs
     id="defs20" /><rect
     y="0"
     x="-1.0847458"
     height="256"
     width="260.33899"
     id="rect3352"
     style="color:#000000;clip-rule:nonzero;display:inline;overflow:visible;visibility:visible;opacity:1;isolation:auto;mix-blend-mode:normal;color-interpolation:sRGB;color-interpolation-filters:linearRGB;solid-color:#000000;solid-opacity:1;fill:#2c89a0;fill-opacity:1;fill-rule:nonzero;stroke-width:1;stroke-linecap:butt;stroke-linejoin:miter;stroke-miterlimit:4;stroke-dasharray:none;stroke-dashoffset:0;stroke-opacity:1;color-rendering:auto;image-rendering:auto;shape-rendering:auto;text-rendering:auto;enable-background:accumulate" /><g
     id="g5265"
     transform="matrix(14.016949,0,0,12.498305,17.118641,68.59745)"><path
       id="path5267"
       d="M 0,0.5 0,0 0.5,0 1,0 1.5,0 2,0 2.5,0 3,0 3.5,0 4,0 4.5,0 5,0 5.5,0 6,0 6.5,0 7,0 7.5,0 8,0 8.5,0 9,0 9.5,0 10,0 10.5,0 11,0 11.5,0 12,0 12.5,0 13,0 13.5,0 14,0 14.5,0 15,0 15.5,0 16,0 16,0.5 16,1 16,1.5 16,2 16,2.5 16,3 16,3.5 16,4 16,4.5 16,5 16,5.5 16,6 16,6.5 16,7 16,7.5 16,8 16,8.5 16,9 16,9.5 16,10 15.5,10 15,10 14.5,10 14,10 13.5,10 13,10 12.5,10 12,10 11.5,10 11,10 10.5,10 10,10 9.5,10 9,10 8.5,10 8,10 7.5,10 7,10 6.5,10 6,10 5.5,10 5,10 4.5,10 4,10 3.5,10 3,10 2.5,10 2,10 1.5,10 1,10 0.5,10 0,10 0,9.5 0,9 0,8.5 0,8 0,7.5 0,7 0,6.5 0,6 0,5.5 0,5 0,4.5 0,4 0,3.5 0,3 0,2.5 0,2 0,1.5 0,1 0,0.5 M 14.125,8.375 Q 14.25,8.75 14.5,8.75 14.75,8.75 14.875,8.375 15,8 15,7.5 15,7 15,6.5 15,6 15,5.5 15,5 15,4.5 15,4 15,3.5 15,3 15,2.5 15,2 14.875,1.625 14.75,1.25 14.5,1.25 q -0.25,0 -0.375,0.375 L 14,2 14.09375,1.71875 14.1875,1.4375 14.125,1.625 Q 14.0625,1.8125 14.03125,2.03125 L 14,2.25 14.015625,2.140625 14.03125,2.03125 13.640625,1.890625 Q 13.25,1.75 13,1.5 12.75,1.25 12.5,1.25 12.25,1.25 12,1.5 11.75,1.75 11.359375,1.890625 L 10.96875,2.03125 10.984375,2.140625 11,2.25 10.96875,2.03125 Q 10.9375,1.8125 10.875,1.625 L 10.8125,1.4375 10.90625,1.71875 11,2 10.875,1.625 Q 10.75,1.25 10.375,1.125 10,1 9.5,1 9,1 8.5,1 8,1 7.4375,1.0625 L 6.875,1.125 6.9375,1.1875 7,1.25 6.875,1.125 Q 6.75,1 6.5,1 L 6.25,1 6.625,1 7,1 6.5,1 Q 6,1 5.5,1 5,1 4.5,1 L 4,1 4.375,1 4.75,1 4.5,1 Q 4.25,1 4.125,1.125 L 4,1.25 4.0625,1.1875 4.125,1.125 3.5625,1.0625 Q 3,1 2.5,1 2,1 1.625,1.125 1.25,1.25 1.125,1.625 1,2 1,2.5 1,3 1,3.5 1,4 1,4.5 1,5 1,5.5 1,6 1,6.5 1,7 1,7.5 1,8 1.125,8.375 1.25,8.75 1.625,8.875 2,9 2.5,9 3,9 3.375,8.875 3.75,8.75 3.875,8.375 4,8 4,7.5 L 4,7 4.375,7.125 Q 4.75,7.25 5,7.5 5.25,7.75 5.5,7.75 5.75,7.75 6,7.5 6.25,7.25 6.625,7.125 L 7,7 7,7.5 Q 7,8 7.125,8.375 7.25,8.75 7.625,8.875 8,9 8.5,9 9,9 9.5,9 10,9 10.375,8.875 10.75,8.75 10.875,8.375 11,8 11,7.5 L 11,7 11,7.375 11,7.75 11,7.5 Q 11,7.25 10.96875,7.03125 L 10.9375,6.8125 10.953125,6.921875 10.96875,7.03125 11.484375,7.015625 Q 12,7 12.5,7 13,7 13.5,7 L 14,7 14,7.5 Q 14,8 14.125,8.375 M 4,6.875 4,7 4,7.375 4,7.75 4,7.5 Q 4,7.25 4,7 L 4,6.75 4,6.875 M 7,7.375 7,7 7,6.875 7,6.75 7,7 Q 7,7.25 7,7.5 L 7,7.75 7,7.375 m 7,0 L 14,7 14,6.875 14,6.75 14,7 q 0,0.25 0,0.5 l 0,0.25 0,-0.375"
       style="fill:#5e2f0f;fill-opacity:1" /><path
       id="path5269"
       d="M 1.125,1.625 Q 1.25,1.25 1.625,1.125 2,1 2.5,1 3,1 3.5625,1.0625 L 4.125,1.125 4.1875,1.0625 4.25,1 4.125,1.125 Q 4,1.25 4,1.5 L 4,1.75 4,1.375 4,1 4,1.5 Q 4,2 4,2.5 4,3 4,3.5 4,4 4,4.5 L 4,5 4,4.625 4,4.25 4,4.5 Q 4,4.75 4.125,4.875 L 4.25,5 4.1875,4.9375 4.125,4.875 4.0625,5.4375 Q 4,6 4,6.5 4,7 4,7.5 4,8 3.875,8.375 3.75,8.75 3.375,8.875 3,9 2.5,9 2,9 1.625,8.875 1.25,8.75 1.125,8.375 1,8 1,7.5 1,7 1,6.5 1,6 1,5.5 1,5 1,4.5 1,4 1,3.5 1,3 1,2.5 1,2 1.125,1.625"
       style="fill:#91420d;fill-opacity:1" /><path
       id="path5271"
       d="M 4,1.5 Q 4,1 4.5,1 5,1 5.5,1 6,1 6.5,1 7,1 7,1.5 7,2 7,2.5 7,3 7,3.5 7,4 7,4.5 7,5 6.625,4.875 6.25,4.75 6.125,4.375 6,4 5.875,3.625 5.75,3.25 5.5,3.25 5.25,3.25 5.125,3.625 5,4 4.875,4.375 4.75,4.75 4.375,4.875 4,5 4,4.5 4,4 4,3.5 4,3 4,2.5 4,2 4,1.5"
       style="fill:#9dd47f;fill-opacity:1" /><path
       id="path5273"
       d="M 7,1.5 7,1 7,1.375 7,1.75 7,1.5 Q 7,1.25 6.875,1.125 L 6.75,1 6.8125,1.0625 6.875,1.125 7.4375,1.0625 Q 8,1 8.5,1 9,1 9.5,1 10,1 10.375,1.125 10.75,1.25 10.875,1.625 11,2 11,2.5 11,3 11,3.5 11,4 10.875,4.375 10.75,4.75 10.5,5 10.25,5.25 10.25,5.5 10.25,5.75 10.5,6 10.75,6.25 10.875,6.625 11,7 11,7.5 11,8 10.875,8.375 10.75,8.75 10.375,8.875 10,9 9.5,9 9,9 8.5,9 8,9 7.625,8.875 7.25,8.75 7.125,8.375 7,8 7,7.5 7,7 7,6.5 7,6 6.9375,5.4375 L 6.875,4.875 6.8125,4.9375 6.75,5 6.875,4.875 Q 7,4.75 7,4.5 L 7,4.25 7,4.625 7,5 7,4.5 Q 7,4 7,3.5 7,3 7,2.5 7,2 7,1.5"
       style="fill:#91420d;fill-opacity:1" /><path
       id="path5275"
       d="m 12,1.5 q 0.25,-0.25 0.5,-0.25 0.25,0 0.5,0.25 L 13.25,1.75 13.0625,1.5625 12.875,1.375 13,1.5 q 0.125,0.125 0.28125,0.21875 L 13.4375,1.8125 13.359375,1.765625 13.28125,1.71875 13.015625,1.984375 Q 12.75,2.25 12.875,2.625 L 13,3 12.5,3 Q 12,3 11.5,3 L 11,3 11,2.5 11,2 11,2.375 11,2.75 11,2.5 Q 11,2.25 10.96875,2.03125 L 10.9375,1.8125 10.953125,1.921875 10.96875,2.03125 11.359375,1.890625 Q 11.75,1.75 12,1.5 M 11,2.625 11,3 11,3.125 11,3.25 11,3 q 0,-0.25 0,-0.5 l 0,-0.25 0,0.375"
       style="fill:#857368;fill-opacity:1" /><path
       id="path5277"
       d="M 14.125,1.625 Q 14.25,1.25 14.5,1.25 q 0.25,0 0.375,0.375 Q 15,2 15,2.5 q 0,0.5 0,1 0,0.5 0,1 0,0.5 0,1 0,0.5 0,1 0,0.5 0,1 Q 15,8 14.875,8.375 14.75,8.75 14.5,8.75 14.25,8.75 14.125,8.375 14,8 14,7.5 14,7 14,6.5 14,6 14,5.5 14,5 14,4.5 14,4 14,3.5 14,3 14,2.5 14,2 14.125,1.625"
       style="fill:#91420d;fill-opacity:1" /><path
       id="path5279"
       d="M 12.875,2.625 Q 12.75,2.25 13.015625,1.984375 L 13.28125,1.71875 13.203125,1.671875 13.125,1.625 13.28125,1.71875 Q 13.4375,1.8125 13.625,1.875 L 13.8125,1.9375 13.53125,1.84375 13.25,1.75 13.640625,1.890625 14.03125,2.03125 14.046875,1.921875 14.0625,1.8125 14.03125,2.03125 Q 14,2.25 14,2.5 L 14,2.75 14,2.375 14,2 14,2.5 14,3 13.5,3 13,3 12.875,2.625 M 14,3.125 14,3 14,2.625 14,2.25 14,2.5 q 0,0.25 0,0.5 l 0,0.25 0,-0.125"
       style="fill:#74675e;fill-opacity:1" /><path
       id="path5281"
       d="M 5.125,3.625 Q 5.25,3.25 5.5,3.25 5.75,3.25 5.875,3.625 6,4 6.125,4.375 6.25,4.75 6.625,4.875 L 7,5 6.625,5 6.25,5 6.5,5 Q 6.75,5 6.875,4.875 L 7,4.75 6.9375,4.8125 6.875,4.875 6.9375,5.4375 7,6 6.5,6 Q 6,6 5.5,6 5,6 4.5,6 L 4,6 4.0625,5.4375 4.125,4.875 4.0625,4.8125 4,4.75 4.125,4.875 Q 4.25,5 4.5,5 L 4.75,5 4.375,5 4,5 4.375,4.875 Q 4.75,4.75 4.875,4.375 5,4 5.125,3.625 M 4,5.625 4,6 4,6.125 4,6.25 4,6 Q 4,5.75 4,5.5 L 4,5.25 4,5.625 M 7,6.125 7,6 7,5.625 7,5.25 7,5.5 Q 7,5.75 7,6 L 7,6.25 7,6.125"
       style="fill:#5e2f0f;fill-opacity:1" /><path
       id="path5283"
       d="M 11,3.5 11,3 11.5,3 q 0.5,0 1,0 L 13,3 13.5,3 14,3 14,3.5 14,4 13.5,4 Q 13,4 12.5,4 12,4 11.484375,3.984375 L 10.96875,3.96875 10.953125,4.078125 10.9375,4.1875 10.96875,3.96875 Q 11,3.75 11,3.5 L 11,3.25 11,3.625 11,4 11,3.5 M 14,4.125 14,4 14,3.625 14,3.25 14,3.5 q 0,0.25 0,0.5 l 0,0.25 0,-0.125 M 14,3.375 14,3 14,2.875 14,2.75 14,3 q 0,0.25 0,0.5 l 0,0.25 0,-0.375 M 11,2.875 11,3 11,3.375 11,3.75 11,3.5 Q 11,3.25 11,3 l 0,-0.25 0,0.125"
       style="fill:#5e2f0f;fill-opacity:1" /><path
       id="path5285"
       d="M 10.875,4.375 11,4 10.90625,4.28125 10.8125,4.5625 10.875,4.375 Q 10.9375,4.1875 10.96875,3.96875 L 11,3.75 10.984375,3.859375 10.96875,3.96875 11.484375,3.984375 Q 12,4 12.5,4 q 0.5,0 1,0 l 0.5,0 0,0.5 q 0,0.5 0,1 0,0.5 0,1 L 14,7 13.5,7 Q 13,7 12.5,7 12,7 11.484375,7.015625 L 10.96875,7.03125 10.984375,7.140625 11,7.25 10.96875,7.03125 Q 10.9375,6.8125 10.875,6.625 L 10.8125,6.4375 10.90625,6.71875 11,7 10.875,6.625 10.75,6.25 10.84375,6.53125 10.9375,6.8125 10.875,6.625 Q 10.8125,6.4375 10.71875,6.28125 L 10.625,6.125 10.671875,6.203125 10.71875,6.28125 10.984375,6.015625 Q 11.25,5.75 11.25,5.5 11.25,5.25 10.984375,4.984375 L 10.71875,4.71875 10.671875,4.796875 10.625,4.875 10.71875,4.71875 Q 10.8125,4.5625 10.875,4.375 L 10.9375,4.1875 10.84375,4.46875 10.75,4.75 10.875,4.375 M 14,7.125 14,7 14,6.625 14,6.25 14,6.5 q 0,0.25 0,0.5 l 0,0.25 0,-0.125 M 14,4.375 14,4 14,3.875 14,3.75 14,4 q 0,0.25 0,0.5 l 0,0.25 0,-0.375"
       style="fill:#3f200c;fill-opacity:1" /><path
       id="path5287"
       d="M 10.25,5.5 Q 10.25,5.25 10.5,5 L 10.75,4.75 10.5625,4.9375 10.375,5.125 10.5,5 Q 10.625,4.875 10.71875,4.71875 L 10.8125,4.5625 10.765625,4.640625 10.71875,4.71875 10.984375,4.984375 Q 11.25,5.25 11.25,5.5 q 0,0.25 -0.265625,0.515625 L 10.71875,6.28125 10.765625,6.359375 10.8125,6.4375 10.71875,6.28125 Q 10.625,6.125 10.5,6 L 10.375,5.875 10.5625,6.0625 10.75,6.25 10.5,6 Q 10.25,5.75 10.25,5.5"
       style="fill:#492711;fill-opacity:1" /><path
       id="path5289"
       d="M 4,6.5 4,6 4.5,6 Q 5,6 5.5,6 6,6 6.5,6 L 7,6 7,6.5 7,7 6.625,7.125 Q 6.25,7.25 6,7.5 5.75,7.75 5.5,7.75 5.25,7.75 5,7.5 4.75,7.25 4.375,7.125 L 4,7 4,6.5 M 4,6.625 4,7 4,7.125 4,7.25 4,7 Q 4,6.75 4,6.5 L 4,6.25 4,6.625 M 7,7.125 7,7 7,6.625 7,6.25 7,6.5 Q 7,6.75 7,7 L 7,7.25 7,7.125 M 7,6.375 7,6 7,5.875 7,5.75 7,6 Q 7,6.25 7,6.5 L 7,6.75 7,6.375 M 4,5.875 4,6 4,6.375 4,6.75 4,6.5 Q 4,6.25 4,6 L 4,5.75 4,5.875"
       style="fill:#d47fbb;fill-opacity:1" /></g></svg>